:version 1.10
:name ASF
:units
  mass 1
  length 1
  angle deg
:documentation
  ASF file generated by Kaydara
:root
  axis xyz
  order  tx ty tz rx ry rz
  position 0 0 0
  orientation 0 0 0
:bonedata
  begin
    id 1
    name lfemurDummy
    direction 0.61522 -0.761478 0.204097
    length 5.68318
    axis 0 -0 0 xyz
  end
  begin
    id 2
    name lfemur
    direction 0.34202 -0.939693 -5.84747e-008
    length 16.9147
    axis 0 -0 20 xyz
    dof rx ry rz
    limits( -inf , inf )
( -inf , inf )
( -inf , inf )

  end
  begin
    id 3
    name ltibia
    direction 0.34202 -0.939693 1.20839e-009
    length 18.0532
    axis 0 -0 20 xyz
    dof rz ry rx
    limits( -inf , inf )
( -inf , inf )
( -inf , inf )

  end
  begin
    id 4
    name lfoot
    direction 0.0841971 -0.23133 0.969225
    length 5.23822
    axis -90 7.62852e-016 20 xyz
    dof ry rx rz
    limits( -inf , inf )
( -inf , inf )
( -inf , inf )

  end
  begin
    id 5
    name ltoes
    direction 0 0 0
    length 0
    axis 0 0 0 xyz
    dof rz ry rx
    limits( -inf , inf )
( -inf , inf )
( -inf , inf )

  end
  begin
    id 6
    name rfemurDummy
    direction -0.625247 -0.75382 0.202044
    length 5.74091
    axis 0 -0 0 xyz
  end
  begin
    id 7
    name rfemur
    direction -0.34202 -0.939693 -1.47013e-008
    length 16.4922
    axis 0 -0 -20 xyz
    dof rx ry rz
    limits( -inf , inf )
( -inf , inf )
( -inf , inf )

  end
  begin
    id 8
    name rtibia
    direction -0.34202 -0.939693 -7.74345e-010
    length 18.2421
    axis 0 -0 -20 xyz
    dof rz ry rx
    limits( -inf , inf )
( -inf , inf )
( -inf , inf )

  end
  begin
    id 9
    name rfoot
    direction -0.124331 -0.341598 0.931586
    length 5.45787
    axis -90 -7.62852e-016 -20 xyz
    dof ry rx rz
    limits( -inf , inf )
( -inf , inf )
( -inf , inf )

  end
  begin
    id 10
    name rtoes
    direction 0 0 0
    length 0
    axis 0 0 0 xyz
    dof rz ry rx
    limits( -inf , inf )
( -inf , inf )
( -inf , inf )

  end
  begin
    id 11
    name lowerbackDummy
    direction 0 0 0
    length 0
    axis 0 -0 0 xyz
  end
  begin
    id 12
    name lowerback
    direction -0.0218484 0.994884 -0.0986304
    length 4.45607
    axis 0 -0 0 xyz
    dof rx ry rz
    limits( -inf , inf )
( -inf , inf )
( -inf , inf )

  end
  begin
    id 13
    name upperback
    direction -0.00973057 0.999717 -0.0217111
    length 4.47449
    axis 0 -0 0 xyz
    dof rx ry rz
    limits( -inf , inf )
( -inf , inf )
( -inf , inf )

  end
  begin
    id 14
    name thorax
    direction -0.000928171 0.999699 0.0245198
    length 4.50973
    axis 0 -0 0 xyz
    dof rx ry rz
    limits( -inf , inf )
( -inf , inf )
( -inf , inf )

  end
  begin
    id 15
    name rclavicle
    direction -0.9009 0.425937 -0.0834055
    length 7.28587
    axis 0 -0 0 xyz
    dof rx ry rz
    limits( -inf , inf )
( -inf , inf )
( -inf , inf )

  end
  begin
    id 16
    name rhumerus
    direction -1 -2.23604e-007 -1.42637e-007
    length 13.5704
    axis 180 30 90 xyz
    dof rx ry rz
    limits( -inf , inf )
( -inf , inf )
( -inf , inf )

  end
  begin
    id 17
    name rradius
    direction -1 5.68281e-008 -4.4952e-007
    length 8.06782
    axis 180 30 90 xyz
    dof rz ry rx
    limits( -inf , inf )
( -inf , inf )
( -inf , inf )

  end
  begin
    id 18
    name rwrist
    direction -1 1.51393e-007 1.38143e-007
    length 4.03391
    axis -90 -90 0 xyz
    dof rz rx ry
    limits( -inf , inf )
( -inf , inf )
( -inf , inf )

  end
  begin
    id 19
    name rthumb
    direction 0 0 0
    length 0
    axis 0 0 0 xyz
    dof ry rx rz
    limits( -inf , inf )
( -inf , inf )
( -inf , inf )

  end
  begin
    id 20
    name rhand
    direction -1 -3.34077e-007 -5.59631e-007
    length 1.29744
    axis -90 -90 0 xyz
    dof ry rx rz
    limits( -inf , inf )
( -inf , inf )
( -inf , inf )

  end
  begin
    id 21
    name rfingers
    direction 0 0 0
    length 0
    axis 0 0 0 xyz
    dof rz ry rx
    limits( -inf , inf )
( -inf , inf )
( -inf , inf )

  end
  begin
    id 22
    name lclavicle
    direction 0.940017 0.332249 -0.0773232
    length 8.29589
    axis 0 -0 0 xyz
    dof rx ry rz
    limits( -inf , inf )
( -inf , inf )
( -inf , inf )

  end
  begin
    id 23
    name lhumerus
    direction 1 7.41158e-008 -1.44768e-008
    length 12.0042
    axis 180 -30 -90 xyz
    dof rx ry rz
    limits( -inf , inf )
( -inf , inf )
( -inf , inf )

  end
  begin
    id 24
    name lradius
    direction 1 -1.32972e-007 3.10821e-007
    length 8.1902
    axis 180 -30 -90 xyz
    dof rz ry rx
    limits( -inf , inf )
( -inf , inf )
( -inf , inf )

  end
  begin
    id 25
    name lwrist
    direction 1 3.08957e-007 4.01394e-007
    length 4.09509
    axis -90 90 0 xyz
    dof rz rx ry
    limits( -inf , inf )
( -inf , inf )
( -inf , inf )

  end
  begin
    id 26
    name lthumb
    direction 0 0 0
    length 0
    axis 0 0 0 xyz
    dof ry rx rz
    limits( -inf , inf )
( -inf , inf )
( -inf , inf )

  end
  begin
    id 27
    name lhand
    direction 1 -1.64125e-007 -6.99514e-007
    length 1.37229
    axis -90 90 0 xyz
    dof ry rx rz
    limits( -inf , inf )
( -inf , inf )
( -inf , inf )

  end
  begin
    id 28
    name lfingers
    direction 0 0 0
    length 0
    axis 0 0 0 xyz
    dof rz ry rx
    limits( -inf , inf )
( -inf , inf )
( -inf , inf )

  end
  begin
    id 29
    name lowerneck
    direction -0.030798 0.998024 0.0547665
    length 3.93918
    axis 0 -0 0 xyz
    dof rx ry rz
    limits( -inf , inf )
( -inf , inf )
( -inf , inf )

  end
  begin
    id 30
    name upperneck
    direction 0.0531588 0.996611 -0.0627736
    length 3.95491
    axis 0 -0 0 xyz
    dof rx ry rz
    limits( -inf , inf )
( -inf , inf )
( -inf , inf )

  end
  begin
    id 31
    name head
    direction 0 0 0
    length 0
    axis 0 0 0 xyz
    dof rx ry rz
    limits( -inf , inf )
( -inf , inf )
( -inf , inf )

  end
:hierarchy
  begin
    root lfemurDummy rfemurDummy lowerbackDummy
    lfemurDummy lfemur
    lfemur ltibia
    ltibia lfoot
    lfoot ltoes
    rfemurDummy rfemur
    rfemur rtibia
    rtibia rfoot
    rfoot rtoes
    lowerbackDummy lowerback
    lowerback upperback
    upperback thorax
    thorax rclavicle lclavicle lowerneck
    rclavicle rhumerus
    rhumerus rradius
    rradius rwrist
    rwrist rthumb rhand
    rhand rfingers
    lclavicle lhumerus
    lhumerus lradius
    lradius lwrist
    lwrist lthumb lhand
    lhand lfingers
    lowerneck upperneck
    upperneck head
  end

:SAMPLES-PER-SECOND 30
:FULLY-SPECIFIED
:DEGREES
76
root  -2.047306722 36.59666767 9.638621863 5.75 25.57299805 -6.134002686
lowerback  16.4951992 6.104660034 -0.03748520091
upperback  5.034470081 7.895699978 -3.608059883
thorax  -3.271159887 3.957679987 -5.261240005
lowerneck  1.590149999 -0.3355079889 -5.637959957
upperneck  12.02429962 -1.773200035 16.69239998
head  3.415009975 -0.4016819894 6.073319912
lclavicle  0 -9.442270133e-015 7.951389973e-016
lhumerus  7.525000095 -10.83650017 66.49700165
lradius  2.455672601e-031 -2.537423124e-031 134.0619965
lwrist  -7.062250077e-031 -0 18.3939991
lhand  -1.496451383e-031 -27.76390076 20.11240005
lfingers  90 7.125020027 -90
lthumb  89.89689403 5.08795885 91.16245106
rclavicle  0 -9.442270133e-015 7.951389973e-016
rhumerus  34.30820084 -19.67359924 -30.73509979
rradius  2.055077875e-031 2.871497687e-031 54.40940094
rwrist  7.062250077e-031 -3.531125038e-031 -2.761590004
rhand  -7.920061211e-032 -33.2840004 9.303460121
rfingers  -90 -7.125020027 -90
rthumb  -92.93752616 -24.25625642 -97.11982154
rfemur  -4.119080067 -2.25751996 23.00779915
rtibia  -0 0 52.06579971
rfoot  -0 -31.34110069 -20.30069923
rtoes  5.373923086 19.29304026 -105.8922705
lfemur  -60.96989822 -12.67020035 -5.91463995
ltibia  -0 0 50.63610077
lfoot  -0 4.001480103 -9.680480003
ltoes  -4.250644065 -19.5611806 -102.515957
77
root  -2.15050442 36.46355576 9.613777521 4.882995605 25.38699341 -6.822998047
lowerback  16.58119965 6.136260033 -0.009112089872
upperback  5.222690105 7.95483017 -3.372489929
thorax  -3.142910004 3.989660025 -5.034580231
lowerneck  1.094059944 -0.212481007 -5.329870224
upperneck  12.55790043 -1.657009959 16.57119942
head  3.644229889 -0.292885989 5.993720055
lclavicle  0 -9.442270133e-015 7.951389973e-016
lhumerus  7.018899918 -10.29870033 66.47779846
lradius  2.489856619e-031 -2.503888587e-031 134.8390045
lwrist  -7.062250077e-031 8.827812596e-032 18.79210091
lhand  -1.496451383e-031 -27.76390076 20.11240005
lfingers  90 7.125020027 -90
lthumb  89.89689403 5.08795885 91.16245106
rclavicle  0 -9.442270133e-015 7.951389973e-016
rhumerus  33.6228981 -18.84440041 -31.62899971
rradius  1.93768421e-031 2.95198644e-031 56.71910095
rwrist  7.062250077e-031 -3.531125038e-031 -2.745320082
rhand  -7.920061211e-032 -33.2840004 9.303460121
rfingers  -90 -7.125020027 -90
rthumb  -92.93752616 -24.25625642 -97.11982154
rfemur  -4.073929787 -2.190579891 22.76759911
rtibia  -0 0 53.05569839
rfoot  -0 -30.76490021 -17.67099953
rtoes  5.373923086 19.29304026 -105.8922705
lfemur  -60.9178009 -12.10709953 -5.423089981
ltibia  -0 0 51.55799866
lfoot  -0 3.807689905 -9.97990036
ltoes  -4.250644065 -19.5611806 -102.515957
78
root  -2.244155613 36.3360007 9.594888762 3.930999756 24.86199951 -7.62399292
lowerback  16.59420013 6.241529942 0.01936759986
upperback  5.374899864 8.111459732 -3.094229937
thorax  -3.013799906 4.068170071 -4.774409771
lowerneck  1.047109962 -0.07492479682 -5.278590202
upperneck  12.8270998 -1.506469965 16.63349915
head  3.714220047 -0.2009519935 6.014760017
lclavicle  0 -9.442270133e-015 7.951389973e-016
lhumerus  6.328380108 -9.820150375 66.44550323
lradius  2.519958326e-031 -2.47359133e-031 135.5319977
lwrist  -1.412450015e-030 -8.827812596e-032 19.01099968
lhand  -1.496451383e-031 -27.76390076 20.11240005
lfingers  90 7.125020027 -90
lthumb  89.89689403 5.08795885 91.16245106
rclavicle  0 -9.442270133e-015 7.951389973e-016
rhumerus  32.82839966 -17.92779922 -32.70040131
rradius  1.808431435e-031 3.032889675e-031 59.19350052
rwrist  7.062250077e-031 -0 -2.768130064
rhand  -7.920061211e-032 -33.2840004 9.303460121
rfingers  -90 -7.125020027 -90
rthumb  -92.93752616 -24.25625642 -97.11982154
rfemur  -3.856669903 -1.887639999 22.70910072
rtibia  -0 0 53.92829895
rfoot  -0 -30.10020065 -14.58030033
rtoes  5.373923086 19.29304026 -105.8922705
lfemur  -60.67689896 -11.32390022 -4.789030075
ltibia  -0 0 52.37580109
lfoot  -0 3.697419882 -10.13020039
ltoes  -4.250644065 -19.5611806 -102.515957
79
root  -2.317466698 36.24466723 9.593355374 2.919998169 24.11099243 -8.281997681
lowerback  16.52689934 6.433350086 -0.1494340003
upperback  5.562930107 8.354789734 -2.744699955
thorax  -2.838829994 4.188250065 -4.335410118
lowerneck  1.490120053 0.005504169967 -5.446080208
upperneck  12.81140041 -1.403030038 16.72319984
head  3.620249987 -0.1738270074 6.074850082
lclavicle  0 -9.442270133e-015 7.951389973e-016
lhumerus  5.42057991 -9.524009705 66.62619781
lradius  2.544356333e-031 -2.448488286e-031 136.1000061
lwrist  -7.062250077e-031 8.827812596e-032 19.00160027
lhand  -1.496451383e-031 -27.76390076 20.11240005
lfingers  90 7.125020027 -90
lthumb  89.89689403 5.08795885 91.16245106
rclavicle  0 -9.442270133e-015 7.951389973e-016
rhumerus  31.92939949 -16.89450073 -33.67890167
rradius  1.673120503e-031 3.109583866e-031 61.7173996
rwrist  7.062250077e-031 -0 -2.803060055
rhand  -7.920061211e-032 -33.2840004 9.303460121
rfingers  -90 -7.125020027 -90
rthumb  -92.93752616 -24.25625642 -97.11982154
rfemur  -3.373189926 -1.391579986 22.59530067
rtibia  -0 0 54.5489006
rfoot  -0 -29.66309929 -11.5532999
rtoes  5.373923086 19.29304026 -105.8922705
lfemur  -60.10660172 -10.48460007 -4.326950073
ltibia  -0 0 53.01810074
lfoot  -0 3.58491993 -10.18159962
ltoes  -4.250644065 -19.5611806 -102.515957
